inDegrees=no
num_controls=7
num_derivatives=13
num_iterations=84
num_multipliers=7
num_parameters=0
num_slacks=7
num_states=26
objective=0.333979
objective_accelerations=0.037089
objective_balance=0.001316
objective_effort=0.027242
objective_height=0.266860
objective_ligament=0.001472
solver_duration=908.656952
status=Solve_Succeeded
success=true
DataType=double
version=3
OpenSimVersion=4.5
endheader
time	/jointset/ground_pelvis/pelvis_tilt/value	/jointset/ground_pelvis/pelvis_tx/value	/jointset/ground_pelvis/pelvis_ty/value	/jointset/hip_r/hip_flexion_r/value	/jointset/hip_r/hip_adduction_r/value	/jointset/hip_r/hip_rotation_r/value	/jointset/back/lumbar_extension/value	/jointset/patellofemoral_r/patellar_flexion_r/value	/jointset/knee_r/knee_flexion_r/value	/jointset/knee_r/knee_adduction_r/value	/jointset/knee_r/knee_rotation_r/value	/jointset/ankle_r/ankle_angle_r/value	/jointset/subtalar_r/subtalar_angle_r/value	/jointset/ground_pelvis/pelvis_tilt/speed	/jointset/ground_pelvis/pelvis_tx/speed	/jointset/ground_pelvis/pelvis_ty/speed	/jointset/hip_r/hip_flexion_r/speed	/jointset/hip_r/hip_adduction_r/speed	/jointset/hip_r/hip_rotation_r/speed	/jointset/back/lumbar_extension/speed	/jointset/patellofemoral_r/patellar_flexion_r/speed	/jointset/knee_r/knee_flexion_r/speed	/jointset/knee_r/knee_adduction_r/speed	/jointset/knee_r/knee_rotation_r/speed	/jointset/ankle_r/ankle_angle_r/speed	/jointset/subtalar_r/subtalar_angle_r/speed	/forceset/tau_hip_flexion_r	/forceset/tau_hip_adduction_r	/forceset/tau_hip_rotation_r	/forceset/tau_knee_flexion_r	/forceset/tau_ankle_angle_r	/forceset/tau_subtalar_angle_r	/forceset/tau_lumbar_extension	lambda_cid13_p0	lambda_cid14_p0	lambda_cid14_p1	lambda_cid14_p2	lambda_cid14_p3	lambda_cid14_p4	lambda_cid14_p5	/jointset/ground_pelvis/pelvis_tilt/accel	/jointset/ground_pelvis/pelvis_tx/accel	/jointset/ground_pelvis/pelvis_ty/accel	/jointset/hip_r/hip_flexion_r/accel	/jointset/hip_r/hip_adduction_r/accel	/jointset/hip_r/hip_rotation_r/accel	/jointset/back/lumbar_extension/accel	/jointset/patellofemoral_r/patellar_flexion_r/accel	/jointset/knee_r/knee_flexion_r/accel	/jointset/knee_r/knee_adduction_r/accel	/jointset/knee_r/knee_rotation_r/accel	/jointset/ankle_r/ankle_angle_r/accel	/jointset/subtalar_r/subtalar_angle_r/accel	gamma_cid13_p0	gamma_cid14_p0	gamma_cid14_p1	gamma_cid14_p2	gamma_cid14_p3	gamma_cid14_p4	gamma_cid14_p5
1.5	-0.1125580263717808	0.03842967772427573	0.8159783340604738	0.8326278789926104	-0.226898040713769	-0.1211272661320212	-0.6243434838324118	0.9366211774506581	0.9366211774506553	-0.03445174830170326	0.1745019346515307	0.306359546995712	0.1371065542909054	0.526180840522777	0.2248169161786993	0.5120939032817748	-2.080379599603985	-0.001114132417625375	-0.1763479314893933	0.8032669294211431	-1.960286126791034	-1.960286126791031	0.494087659813694	0.0001627466238156678	-0.525005553243737	-0.2102453407553713	-0.173483319350748	0.01885270234476867	0.01762026070060096	-0.2821225954922764	-0.009519418122370775	-0.006534326619909795	0.2194755906670999	-9.316089093467312	-45.22146120799525	-9.986931293833688	1.135881056801848	-1.095702792236191	-627.5492250782452	52.87290251316787	0.1617376214725872	0.5493798745399858	-0.539518516114224	-0.9887779354579239	-0.2596376412412922	-0.6947209777581053	1.767152981755332	-1.323193353744092	-1.323193353744091	0.4272349280506584	-0.02249078940390751	-0.666369301865297	-0.4388814392763412	1.714154476290013e-07	1.387539201667156e-07	-1.077858445346766e-06	1.471697851909142e-06	2.304216568582521e-08	3.292920268617122e-07	-8.336373466779805e-07
1.51	-0.1072885217721365	0.04070509017926027	0.8210712931162208	0.8117766192438006	-0.2269231026930195	-0.1229250377042971	-0.6162239291494817	0.9169545962471032	0.916954596247101	-0.0294876949955017	0.1745035330554171	0.3010766904428648	0.1349810848422517	0.5276394375948968	0.2302386441339932	0.5063913652259587	-2.089603541287175	-0.003905662625794822	-0.1832146553449365	0.8205403260126248	-1.972767777557052	-1.97276777755705	0.4986915152003167	0.0001539076549654967	-0.5314828016427942	-0.214807558317199	-0.1658900863820477	0.01692675944570805	0.01780147123006739	-0.2787023785198444	-0.00738984901453564	-0.007268169096535536	0.2126458369415693	-10.34722033560082	-44.25949464373652	-9.978550914491381	0.9533232443614509	-1.228584046995193	-622.7000457414983	52.86463728815061	0.1258353066157596	0.5345333189714971	-0.6015391668081219	-0.8488648933758559	-0.2898801503042159	-0.6836264612269763	1.691880824911355	-1.171332563270051	-1.171332563270061	0.4721154440625477	0.009709541163371844	-0.6259227010737192	-0.4587306887338423	1.641440147317405e-07	1.339710197712306e-07	-1.013847484258245e-06	1.42930787369202e-06	1.993007295254936e-08	3.221024117640574e-07	-8.103019314288095e-07
1.52	-0.102006848290463	0.04303391272638698	0.8261040432481112	0.7908411875564343	-0.226976273862289	-0.1247916721894853	-0.6079347509352234	0.897171062210839	0.8971710622108395	-0.02447857221540823	0.1745050010679701	0.2957315573875972	0.1328112254631603	0.5286146169283803	0.2354989346071374	0.5000521185104398	-2.097213987315425	-0.006735970421944555	-0.1901205140714602	0.8371916356867826	-1.983676693332644	-1.983676693332641	0.5031015545907159	0.0001366683576732616	-0.5374608537277623	-0.2191233268429408	-0.1582968534133498	0.01500081654664897	0.01798268175949832	-0.2752821615474147	-0.005260279906698513	-0.008002011573157367	0.2058160832160368	-11.38067731774163	-43.29804261248459	-9.968656589531454	0.7686915118114334	-1.37269025199509	-617.8548542391811	52.91760789532346	0.06505407374521806	0.5170923781101184	-0.6668602480548014	-0.6660788044699016	-0.2673931588373457	-0.7025479519542025	1.642735598290453	-1.008646355658651	-1.008646355658649	0.3884717288059657	-0.02417085509235184	-0.5665300390474509	-0.3895916320591448	1.620834986297782e-07	1.254352539413627e-07	-1.077941877063872e-06	1.317487587893296e-06	3.31148122692158e-08	3.132533445513024e-07	-8.551305775318527e-07
1.53	-0.09671784993800613	0.04541447327677194	0.8310702769915448	0.7698377715505735	-0.2270578304371026	-0.1267281990825532	-0.5994822254136016	0.8772863379333659	0.8772863379333613	-0.01942695115774613	0.1745065371894626	0.2903292185306103	0.1305996463245696	0.5291042781722356	0.2405800787155394	0.4930943091371298	-2.103193390979266	-0.009578498161597808	-0.1971810765079258	0.8532019211849657	-1.992992403650789	-1.992992403650791	0.5071941296576348	0.0001622296198078518	-0.5429172317544253	-0.2231460306738746	-0.1507818321849417	0.01294791237646831	0.01817730587172632	-0.2719380198096218	-0.003225246769149215	-0.008801448890900959	0.1990404504985546	-12.41361369746962	-42.39085765465803	-10.00117688522149	0.5958765822012448	-1.453433467580171	-613.2651411894499	52.94368582545314	0.02881441916127792	0.4986769029112953	-0.7252300458599749	-0.5224852317857384	-0.2931025258790125	-0.7069987732806442	1.563442907597896	-0.8517030773029788	-0.8517030773037144	0.4151935706490449	0.01483295058472515	-0.5216878987000648	-0.401735012871934	1.655595816228204e-07	1.129120685874629e-07	-1.278148208382029e-06	1.131897600289122e-06	6.361493563894573e-08	3.026411094662533e-07	-9.723835388216226e-07
1.54	-0.0914263765192186	0.0478448555633819	0.8359639348884672	0.748782838691186	-0.2271678962781799	-0.1287351692767452	-0.5908729434605949	0.8573167226112236	0.857316722611224	-0.01433529571441191	0.1745081115903218	0.2848750166505118	0.1283492150968174	0.529109630194316	0.245463281852136	0.4855369492081929	-2.107517358020891	-0.01243782367524151	-0.2042091742959072	0.8685429219637814	-2.000654902265355	-2.000654902265361	0.5111084317251194	0.0001443242306768683	-0.5478334583500611	-0.2268937446752658	-0.1432668109565338	0.01089500820628921	0.01837192998396977	-0.2685938780718268	-0.001190213631598243	-0.009600886208641817	0.1922648177810724	-13.44239479271415	-41.48487568587512	-10.03307606450001	0.4220122764635647	-1.54092276967583	-608.6888067072385	53.02399486437277	-0.03180777060988261	0.4775041837490906	-0.7867703591801712	-0.3349914800266895	-0.270752713635435	-0.6960550222573298	1.508878654416941	-0.6780040149428462	-0.6780040149428483	0.3528171289191193	-0.03286418534549816	-0.4584997528419225	-0.3345936661505924	1.707627894203039e-07	1.018257194312575e-07	-1.49036472991688e-06	9.41541930841391e-07	9.477159471071367e-08	2.906227554408165e-07	-1.083158960595991e-06
